# xmcd
#
# Track frame offsets: 
#        150
#        18113
#        36073
#
# Disc length: 719 seconds
#
# Revision: 0
# Processed by: cddbd v1.5.2PL0 Copyright (c) Steve Scherf et al.
# Submitted via: ExactAudioCopy v0.95b4
#
DISCID=1502cd03
DTITLE=Kanye West - Flashing Lights
DYEAR=2007
DGENRE=Hip-Hop
TTITLE0=Flashing Lights (Clean)
TTITLE1=Flashing Lights
TTITLE2=Flashing Lights (INST)
EXTD=
EXTT0=
EXTT1=
EXTT2=
PLAYORDER=
